<svg xmlns="http://www.w3.org/2000/svg" viewBox="0 0 60.35 64">
  <g id="Layer_2" data-name="Layer 2">
    <g id="Layer_1-2" data-name="Layer 1">
      <path fill="currentColor" d="M32.84,9.38V5.46a31.38,31.38,0,0,1,7,1.39l1.65-5.07a36.84,36.84,0,0,0-22.61,0l1.65,5.07a31.38,31.38,0,0,1,7-1.39V9.38a27.37,27.37,0,1,0,5.33,0ZM30.17,58.67a22,22,0,1,1,22-22A22,22,0,0,1,30.17,58.67Z"/>
      <path fill="currentColor" d="M56,18.9l4.39-3a36.48,36.48,0,0,0-9.42-9.41l-3,4.39A31.12,31.12,0,0,1,56,18.9Z"/>
      <path fill="currentColor" d="M12.44,10.85l-3-4.39A36.48,36.48,0,0,0,0,15.87l4.39,3A31.12,31.12,0,0,1,12.44,10.85Z"/>
      <path fill="currentColor" d="M38.18,40l-5.34-4V21.33a2.67,2.67,0,1,0-5.33,0v16a2.13,2.13,0,0,0,.08.61,1.8,1.8,0,0,0,.21.56,1.43,1.43,0,0,0,.29.48.76.76,0,0,1,.08.11,2.55,2.55,0,0,0,.38.35l0,0,.11.08,10.56,7.92a2.54,2.54,0,0,0,1.6.54A2.74,2.74,0,0,0,43,46.93a2.67,2.67,0,0,0-.54-3.73Z"/>
    </g>
  </g>
</svg>
